<svg width="289" height="108" viewBox="0 0 289 108" fill="none" xmlns="http://www.w3.org/2000/svg">
<path d="M15.7548 58.5351C13.2574 58.5351 10.9955 57.893 8.96908 56.6086C6.95692 55.31 5.35862 53.4049 4.17415 50.8932C3.00396 48.3673 2.41887 45.2706 2.41887 41.6031C2.41887 37.8356 3.02537 34.7032 4.23837 32.2059C5.45137 29.6942 7.06395 27.8177 9.07611 26.5761C11.1025 25.3203 13.3216 24.6924 15.7334 24.6924C17.5743 24.6924 19.1084 25.0063 20.3356 25.6343C21.5772 26.2479 22.5761 27.0185 23.3325 27.9461C24.1031 28.8594 24.6882 29.7585 25.0877 30.6432H25.366V14.1607H34.4635V58H25.473V52.7341H25.0877C24.6596 53.6475 24.0531 54.5536 23.2682 55.4527C22.4976 56.3375 21.4915 57.0724 20.25 57.6575C19.0227 58.2426 17.5243 58.5351 15.7548 58.5351ZM18.6446 51.2785C20.1144 51.2785 21.356 50.879 22.3692 50.0798C23.3967 49.2664 24.1816 48.1319 24.7238 46.6763C25.2804 45.2207 25.5587 43.5153 25.5587 41.5603C25.5587 39.6052 25.2875 37.907 24.7452 36.4656C24.203 35.0243 23.4181 33.9112 22.3906 33.1263C21.3631 32.3414 20.1144 31.949 18.6446 31.949C17.1461 31.949 15.8832 32.3557 14.8557 33.1691C13.8282 33.9826 13.0505 35.1099 12.5225 36.5513C11.9945 37.9926 11.7304 39.6623 11.7304 41.5603C11.7304 43.4725 11.9945 45.1636 12.5225 46.6335C13.0647 48.0891 13.8425 49.2307 14.8557 50.0584C15.8832 50.8718 17.1461 51.2785 18.6446 51.2785ZM41.961 58V25.1205H50.8016V30.8573H51.1441C51.7435 28.8166 52.7495 27.2754 54.1623 26.2336C55.5751 25.1776 57.202 24.6496 59.0429 24.6496C59.4995 24.6496 59.9919 24.6781 60.5199 24.7352C61.0479 24.7923 61.5117 24.8708 61.9113 24.9707V33.0621C61.4832 32.9337 60.8909 32.8195 60.1346 32.7196C59.3782 32.6197 58.6861 32.5698 58.0582 32.5698C56.7168 32.5698 55.518 32.8623 54.462 33.4474C53.4203 34.0182 52.5926 34.8174 51.9789 35.8449C51.3796 36.8724 51.0799 38.0568 51.0799 39.3983V58H41.961ZM66.6259 58V25.1205H75.7448V58H66.6259ZM71.2068 20.8821C69.8511 20.8821 68.688 20.4326 67.7176 19.5336C66.7615 18.6202 66.2834 17.5285 66.2834 16.2585C66.2834 15.0026 66.7615 13.9252 67.7176 13.0262C68.688 12.1128 69.8511 11.6562 71.2068 11.6562C72.5625 11.6562 73.7184 12.1128 74.6745 13.0262C75.6449 13.9252 76.1302 15.0026 76.1302 16.2585C76.1302 17.5285 75.6449 18.6202 74.6745 19.5336C73.7184 20.4326 72.5625 20.8821 71.2068 20.8821ZM113.703 25.1205L102.208 58H91.9331L80.4381 25.1205H90.0708L96.8992 48.6456H97.2417L104.049 25.1205H113.703ZM132.294 58.6422C128.912 58.6422 126.001 57.9572 123.56 56.5872C121.134 55.203 119.265 53.2479 117.952 50.722C116.639 48.1818 115.983 45.1779 115.983 41.7101C115.983 38.328 116.639 35.3597 117.952 32.8052C119.265 30.2508 121.113 28.26 123.496 26.833C125.894 25.4059 128.705 24.6924 131.93 24.6924C134.099 24.6924 136.118 25.042 137.988 25.7413C139.872 26.4263 141.513 27.4609 142.911 28.8451C144.324 30.2294 145.423 31.9704 146.208 34.0682C146.993 36.1517 147.385 38.592 147.385 41.389V43.8935H119.622V38.2423H138.801C138.801 36.9294 138.516 35.7664 137.945 34.7532C137.374 33.74 136.582 32.9479 135.569 32.3771C134.57 31.792 133.407 31.4995 132.08 31.4995C130.696 31.4995 129.468 31.8206 128.398 32.4627C127.342 33.0906 126.514 33.9397 125.915 35.01C125.316 36.0661 125.009 37.2434 124.995 38.542V43.9149C124.995 45.5418 125.294 46.9474 125.894 48.1319C126.507 49.3163 127.371 50.2297 128.484 50.8718C129.597 51.514 130.917 51.8351 132.444 51.8351C133.457 51.8351 134.385 51.6924 135.227 51.407C136.069 51.1216 136.789 50.6934 137.389 50.1226C137.988 49.5518 138.445 48.8525 138.759 48.0248L147.192 48.5814C146.764 50.6078 145.887 52.3774 144.56 53.8901C143.247 55.3885 141.548 56.5587 139.465 57.4006C137.396 58.2283 135.005 58.6422 132.294 58.6422Z" fill="white"/>
<path d="M153.507 58V14.1607H170.803C174.128 14.1607 176.961 14.7957 179.301 16.0658C181.642 17.3216 183.426 19.0698 184.653 21.3103C185.894 23.5365 186.515 26.1052 186.515 29.0164C186.515 31.9276 185.887 34.4963 184.631 36.7225C183.376 38.9487 181.556 40.6826 179.173 41.9242C176.804 43.1657 173.936 43.7865 170.568 43.7865H159.544V36.3586H169.069C170.853 36.3586 172.323 36.0518 173.479 35.4382C174.649 34.8103 175.52 33.9469 176.09 32.848C176.676 31.7349 176.968 30.4577 176.968 29.0164C176.968 27.5608 176.676 26.2907 176.09 25.2061C175.52 24.1073 174.649 23.2582 173.479 22.6588C172.309 22.0452 170.825 21.7384 169.026 21.7384H162.776V58H153.507ZM200.857 58.6208C198.759 58.6208 196.89 58.2569 195.249 57.5291C193.608 56.787 192.309 55.6953 191.353 54.254C190.411 52.7984 189.94 50.986 189.94 48.8169C189.94 46.9902 190.275 45.4561 190.946 44.2146C191.617 42.973 192.53 41.9741 193.686 41.2178C194.842 40.4614 196.155 39.8906 197.625 39.5053C199.109 39.12 200.664 38.8488 202.291 38.6919C204.204 38.4921 205.745 38.3066 206.915 38.1353C208.085 37.9498 208.934 37.6786 209.462 37.3219C209.99 36.9651 210.254 36.4371 210.254 35.7378V35.6094C210.254 34.2537 209.826 33.2048 208.97 32.4627C208.128 31.7207 206.929 31.3496 205.374 31.3496C203.733 31.3496 202.427 31.7135 201.456 32.4413C200.486 33.1549 199.844 34.0539 199.53 35.1385L191.096 34.4535C191.524 32.4556 192.366 30.7289 193.622 29.2733C194.878 27.8034 196.497 26.676 198.481 25.8911C200.479 25.092 202.791 24.6924 205.417 24.6924C207.243 24.6924 208.991 24.9064 210.661 25.3346C212.345 25.7627 213.836 26.4263 215.135 27.3253C216.448 28.2244 217.482 29.3803 218.239 30.7931C218.995 32.1916 219.373 33.8684 219.373 35.8235V58H210.725V53.4405H210.468C209.94 54.468 209.234 55.3742 208.349 56.1591C207.464 56.9297 206.401 57.5362 205.16 57.9786C203.918 58.4067 202.484 58.6208 200.857 58.6208ZM203.469 52.3274C204.81 52.3274 205.995 52.0634 207.022 51.5354C208.049 50.9931 208.856 50.2653 209.441 49.352C210.026 48.4387 210.319 47.4041 210.319 46.2482V42.759C210.033 42.9445 209.641 43.1158 209.141 43.2727C208.656 43.4154 208.107 43.551 207.493 43.6794C206.879 43.7936 206.266 43.9006 205.652 44.0005C205.038 44.0862 204.482 44.1646 203.982 44.236C202.912 44.393 201.977 44.6427 201.178 44.9852C200.379 45.3277 199.758 45.7915 199.316 46.3766C198.873 46.9474 198.652 47.6609 198.652 48.5172C198.652 49.7587 199.102 50.7077 200.001 51.3642C200.914 52.0063 202.07 52.3274 203.469 52.3274ZM235.567 14.1607V58H226.448V14.1607H235.567ZM244.884 40.4257C244.884 35.1171 245.59 30.2294 247.003 25.7627C248.43 21.296 250.606 17.1575 253.532 13.3473H262.244C261.131 14.76 260.096 16.4868 259.14 18.5275C258.184 20.5539 257.349 22.7801 256.636 25.2061C255.922 27.6321 255.365 30.1438 254.966 32.741C254.566 35.324 254.367 37.8856 254.367 40.4257C254.367 43.8079 254.709 47.2257 255.394 50.6792C256.093 54.1184 257.035 57.315 258.22 60.269C259.418 63.223 260.76 65.6419 262.244 67.5256H253.532C250.606 63.7154 248.43 59.5769 247.003 55.1102C245.59 50.6435 244.884 45.7487 244.884 40.4257ZM282.906 40.4257C282.906 45.7487 282.192 50.6435 280.765 55.1102C279.353 59.5769 277.183 63.7154 274.258 67.5256H265.546C266.659 66.1128 267.694 64.3861 268.65 62.3454C269.606 60.3047 270.441 58.0785 271.154 55.6668C271.868 53.2408 272.424 50.7291 272.824 48.1319C273.223 45.5346 273.423 42.9659 273.423 40.4257C273.423 37.0436 273.074 33.6329 272.374 30.1937C271.689 26.7402 270.747 23.5436 269.549 20.6039C268.364 17.6498 267.03 15.231 265.546 13.3473H274.258C277.183 17.1575 279.353 21.296 280.765 25.7627C282.192 30.2294 282.906 35.1171 282.906 40.4257Z" fill="#FFE500"/>
<path d="M8.86205 101.145C7.24828 101.145 5.86017 100.803 4.69771 100.119C3.54209 99.4288 2.65314 98.4715 2.03089 97.2475C1.41547 96.0234 1.10776 94.6148 1.10776 93.0216C1.10776 91.4078 1.41889 89.9923 2.04114 88.7752C2.67024 87.5512 3.5626 86.5973 4.71822 85.9135C5.87384 85.2228 7.24828 84.8775 8.84154 84.8775C10.216 84.8775 11.4195 85.1271 12.452 85.6263C13.4845 86.1254 14.3017 86.8263 14.9034 87.729C15.5052 88.6316 15.8368 89.6915 15.8984 90.9086H11.775C11.6588 90.1223 11.3511 89.4897 10.8519 89.0111C10.3596 88.5256 9.71338 88.2828 8.91334 88.2828C8.23637 88.2828 7.64489 88.4675 7.13887 88.8367C6.6397 89.1991 6.24993 89.7291 5.96958 90.4265C5.68922 91.124 5.54904 91.9685 5.54904 92.96C5.54904 93.9652 5.6858 94.82 5.95932 95.5243C6.23968 96.2286 6.63286 96.7654 7.13887 97.1346C7.64489 97.5039 8.23637 97.6885 8.91334 97.6885C9.41251 97.6885 9.8604 97.5859 10.257 97.3808C10.6604 97.1757 10.9921 96.8782 11.2519 96.4884C11.5186 96.0918 11.693 95.6166 11.775 95.0627H15.8984C15.83 96.2662 15.5018 97.3261 14.9137 98.2424C14.3325 99.1518 13.529 99.863 12.5033 100.376C11.4776 100.889 10.2638 101.145 8.86205 101.145ZM25.8143 101.145C24.2211 101.145 22.8432 100.807 21.6807 100.13C20.5251 99.4459 19.6328 98.4954 19.0037 97.2782C18.3746 96.0542 18.06 94.6353 18.06 93.0216C18.06 91.3941 18.3746 89.9718 19.0037 88.7547C19.6328 87.5307 20.5251 86.5802 21.6807 85.9032C22.8432 85.2194 24.2211 84.8775 25.8143 84.8775C27.4076 84.8775 28.782 85.2194 29.9376 85.9032C31.1001 86.5802 31.9959 87.5307 32.625 88.7547C33.2541 89.9718 33.5686 91.3941 33.5686 93.0216C33.5686 94.6353 33.2541 96.0542 32.625 97.2782C31.9959 98.4954 31.1001 99.4459 29.9376 100.13C28.782 100.807 27.4076 101.145 25.8143 101.145ZM25.8348 97.7603C26.5597 97.7603 27.1648 97.5552 27.6503 97.1449C28.1358 96.7278 28.5016 96.1602 28.7478 95.4422C29.0008 94.7242 29.1273 93.9071 29.1273 92.9908C29.1273 92.0745 29.0008 91.2574 28.7478 90.5394C28.5016 89.8214 28.1358 89.2538 27.6503 88.8367C27.1648 88.4196 26.5597 88.211 25.8348 88.211C25.1032 88.211 24.4877 88.4196 23.9886 88.8367C23.4962 89.2538 23.1236 89.8214 22.8706 90.5394C22.6244 91.2574 22.5013 92.0745 22.5013 92.9908C22.5013 93.9071 22.6244 94.7242 22.8706 95.4422C23.1236 96.1602 23.4962 96.7278 23.9886 97.1449C24.4877 97.5552 25.1032 97.7603 25.8348 97.7603ZM42.2153 101.094C41.0186 101.094 39.9348 100.786 38.9638 100.171C37.9996 99.5484 37.2338 98.6356 36.6662 97.4321C36.1055 96.2218 35.8251 94.7379 35.8251 92.9805C35.8251 91.1753 36.1158 89.6744 36.697 88.4777C37.2782 87.2742 38.0509 86.375 39.0151 85.7801C39.9861 85.1784 41.0494 84.8775 42.205 84.8775C43.0871 84.8775 43.8222 85.0279 44.4103 85.3288C45.0052 85.6228 45.4838 85.9921 45.8462 86.4366C46.2155 86.8742 46.4959 87.305 46.6873 87.729H46.8207V79.8311H51.1799V100.837H46.8719V98.3142H46.6873C46.4822 98.7518 46.1916 99.186 45.8155 99.6168C45.4462 100.041 44.9641 100.393 44.3692 100.673C43.7812 100.954 43.0632 101.094 42.2153 101.094ZM43.6 97.6167C44.3043 97.6167 44.8992 97.4252 45.3847 97.0423C45.877 96.6525 46.2531 96.1089 46.5129 95.4114C46.7796 94.714 46.913 93.8968 46.913 92.96C46.913 92.0232 46.783 91.2095 46.5232 90.5189C46.2634 89.8282 45.8873 89.2949 45.3949 88.9188C44.9026 88.5427 44.3043 88.3546 43.6 88.3546C42.882 88.3546 42.2768 88.5495 41.7845 88.9393C41.2921 89.329 40.9195 89.8692 40.6665 90.5599C40.4134 91.2505 40.2869 92.0506 40.2869 92.96C40.2869 93.8763 40.4134 94.6866 40.6665 95.3909C40.9263 96.0884 41.299 96.6355 41.7845 97.0321C42.2768 97.4218 42.882 97.6167 43.6 97.6167ZM61.9523 101.145C60.3317 101.145 58.9367 100.817 57.7674 100.16C56.605 99.4972 55.7092 98.5603 55.0801 97.35C54.451 96.1329 54.1365 94.6935 54.1365 93.0318C54.1365 91.4112 54.451 89.9889 55.0801 88.7649C55.7092 87.5409 56.5947 86.587 57.7367 85.9032C58.8855 85.2194 60.2325 84.8775 61.7779 84.8775C62.8173 84.8775 63.7849 85.045 64.6807 85.3801C65.5833 85.7083 66.3696 86.2041 67.0398 86.8674C67.7167 87.5307 68.2433 88.3649 68.6194 89.3701C68.9954 90.3684 69.1835 91.5377 69.1835 92.878V94.078H55.8802V91.3702H65.0704C65.0704 90.7411 64.9337 90.1838 64.6601 89.6983C64.3866 89.2128 64.0071 88.8333 63.5216 88.5598C63.043 88.2794 62.4857 88.1392 61.8497 88.1392C61.1864 88.1392 60.5984 88.2931 60.0855 88.6008C59.5795 88.9017 59.1829 89.3085 58.8957 89.8214C58.6085 90.3274 58.4615 90.8915 58.4547 91.5138V94.0883C58.4547 94.8678 58.5983 95.5414 58.8855 96.1089C59.1795 96.6765 59.5932 97.1141 60.1266 97.4218C60.6599 97.7295 61.2924 97.8834 62.0241 97.8834C62.5096 97.8834 62.9541 97.815 63.3575 97.6782C63.761 97.5415 64.1063 97.3363 64.3935 97.0628C64.6807 96.7893 64.8995 96.4542 65.0499 96.0576L69.0912 96.3243C68.886 97.2953 68.4655 98.1432 67.8296 98.8681C67.2005 99.586 66.3867 100.147 65.3884 100.55C64.3969 100.947 63.2515 101.145 61.9523 101.145ZM72.0349 100.837V85.0826H76.2711V87.8315H76.4352C76.7224 86.8537 77.2045 86.1152 77.8814 85.616C78.5584 85.11 79.3379 84.857 80.22 84.857C80.4388 84.857 80.6748 84.8707 80.9278 84.898C81.1808 84.9254 81.403 84.963 81.5945 85.0108V88.888C81.3893 88.8265 81.1055 88.7717 80.7431 88.7239C80.3807 88.676 80.0491 88.6521 79.7482 88.6521C79.1054 88.6521 78.531 88.7923 78.025 89.0726C77.5259 89.3461 77.1292 89.7291 76.8352 90.2214C76.548 90.7137 76.4044 91.2813 76.4044 91.9241V100.837H72.0349ZM96.962 89.5752L92.9618 89.8214C92.8934 89.4795 92.7464 89.1718 92.5207 88.8983C92.2951 88.6179 91.9976 88.3957 91.6284 88.2315C91.266 88.0606 90.8317 87.9751 90.3257 87.9751C89.6488 87.9751 89.0778 88.1187 88.6128 88.4059C88.1478 88.6863 87.9153 89.0624 87.9153 89.5342C87.9153 89.9103 88.0658 90.2282 88.3666 90.4881C88.6675 90.7479 89.1838 90.9565 89.9155 91.1138L92.7669 91.6882C94.2986 92.0027 95.4406 92.5087 96.1927 93.2062C96.9449 93.9037 97.321 94.82 97.321 95.9551C97.321 96.9876 97.0167 97.8936 96.4081 98.6732C95.8064 99.4527 94.979 100.061 93.9259 100.499C92.8797 100.93 91.6728 101.145 90.3052 101.145C88.2196 101.145 86.558 100.711 85.3203 99.8425C84.0895 98.9672 83.3681 97.7774 83.1561 96.273L87.4538 96.0474C87.5837 96.6833 87.8982 97.1688 88.3974 97.5039C88.8966 97.8321 89.5359 97.9962 90.3155 97.9962C91.0813 97.9962 91.6968 97.8492 92.1617 97.5552C92.6336 97.2543 92.8729 96.8679 92.8797 96.3961C92.8729 95.9995 92.7054 95.6747 92.3771 95.4217C92.0489 95.1619 91.5429 94.9636 90.8591 94.8268L88.1307 94.2832C86.5922 93.9755 85.4468 93.4421 84.6946 92.6831C83.9493 91.9241 83.5766 90.9565 83.5766 89.7804C83.5766 88.7683 83.8501 87.8965 84.3972 87.1648C84.9511 86.4332 85.7272 85.869 86.7255 85.4724C87.7307 85.0758 88.9068 84.8775 90.2539 84.8775C92.2438 84.8775 93.8097 85.298 94.9516 86.1391C96.1004 86.9802 96.7705 88.1256 96.962 89.5752ZM113.876 101.145C112.283 101.145 110.905 100.807 109.742 100.13C108.587 99.4459 107.694 98.4954 107.065 97.2782C106.436 96.0542 106.122 94.6353 106.122 93.0216C106.122 91.3941 106.436 89.9718 107.065 88.7547C107.694 87.5307 108.587 86.5802 109.742 85.9032C110.905 85.2194 112.283 84.8775 113.876 84.8775C115.469 84.8775 116.844 85.2194 117.999 85.9032C119.162 86.5802 120.057 87.5307 120.686 88.7547C121.316 89.9718 121.63 91.3941 121.63 93.0216C121.63 94.6353 121.316 96.0542 120.686 97.2782C120.057 98.4954 119.162 99.4459 117.999 100.13C116.844 100.807 115.469 101.145 113.876 101.145ZM113.896 97.7603C114.621 97.7603 115.226 97.5552 115.712 97.1449C116.197 96.7278 116.563 96.1602 116.809 95.4422C117.062 94.7242 117.189 93.9071 117.189 92.9908C117.189 92.0745 117.062 91.2574 116.809 90.5394C116.563 89.8214 116.197 89.2538 115.712 88.8367C115.226 88.4196 114.621 88.211 113.896 88.211C113.165 88.211 112.549 88.4196 112.05 88.8367C111.558 89.2538 111.185 89.8214 110.932 90.5394C110.686 91.2574 110.563 92.0745 110.563 92.9908C110.563 93.9071 110.686 94.7242 110.932 95.4422C111.185 96.1602 111.558 96.7278 112.05 97.1449C112.549 97.5552 113.165 97.7603 113.896 97.7603ZM128.841 91.7292V100.837H124.471V85.0826H128.636V87.8623H128.82C129.169 86.946 129.754 86.2212 130.574 85.6878C131.395 85.1476 132.39 84.8775 133.559 84.8775C134.653 84.8775 135.607 85.1168 136.421 85.5955C137.234 86.0742 137.867 86.758 138.318 87.6469C138.77 88.529 138.995 89.5821 138.995 90.8061V100.837H134.626V91.5856C134.633 90.6214 134.386 89.8692 133.887 89.329C133.388 88.782 132.701 88.5085 131.826 88.5085C131.238 88.5085 130.718 88.635 130.267 88.888C129.822 89.141 129.473 89.5103 129.22 89.9957C128.974 90.4744 128.848 91.0522 128.841 91.7292ZM157.504 85.0826V88.3649H148.016V85.0826H157.504ZM150.17 81.3081H154.54V95.9961C154.54 96.3995 154.601 96.7141 154.724 96.9397C154.847 97.1586 155.018 97.3124 155.237 97.4013C155.463 97.4902 155.723 97.5346 156.017 97.5346C156.222 97.5346 156.427 97.5176 156.632 97.4834C156.837 97.4423 156.995 97.4116 157.104 97.391L157.791 100.643C157.572 100.711 157.265 100.79 156.868 100.878C156.471 100.974 155.989 101.032 155.422 101.053C154.369 101.094 153.446 100.954 152.652 100.632C151.866 100.311 151.254 99.8117 150.816 99.1347C150.379 98.4578 150.163 97.603 150.17 96.5705V81.3081ZM165.058 91.7292V100.837H160.689V79.8311H164.935V87.8623H165.12C165.475 86.9323 166.05 86.2041 166.843 85.6776C167.636 85.1442 168.631 84.8775 169.828 84.8775C170.922 84.8775 171.876 85.1168 172.689 85.5955C173.51 86.0673 174.146 86.7477 174.597 87.6366C175.055 88.5187 175.281 89.5752 175.274 90.8061V100.837H170.905V91.5856C170.912 90.6146 170.665 89.859 170.166 89.3188C169.674 88.7786 168.983 88.5085 168.094 88.5085C167.499 88.5085 166.973 88.635 166.515 88.888C166.063 89.141 165.708 89.5103 165.448 89.9957C165.195 90.4744 165.065 91.0522 165.058 91.7292ZM185.893 101.145C184.272 101.145 182.877 100.817 181.708 100.16C180.545 99.4972 179.65 98.5603 179.021 97.35C178.392 96.1329 178.077 94.6935 178.077 93.0318C178.077 91.4112 178.392 89.9889 179.021 88.7649C179.65 87.5409 180.535 86.587 181.677 85.9032C182.826 85.2194 184.173 84.8775 185.718 84.8775C186.758 84.8775 187.725 85.045 188.621 85.3801C189.524 85.7083 190.31 86.2041 190.98 86.8674C191.657 87.5307 192.184 88.3649 192.56 89.3701C192.936 90.3684 193.124 91.5377 193.124 92.878V94.078H179.821V91.3702H189.011C189.011 90.7411 188.874 90.1838 188.601 89.6983C188.327 89.2128 187.948 88.8333 187.462 88.5598C186.983 88.2794 186.426 88.1392 185.79 88.1392C185.127 88.1392 184.539 88.2931 184.026 88.6008C183.52 88.9017 183.123 89.3085 182.836 89.8214C182.549 90.3274 182.402 90.8915 182.395 91.5138V94.0883C182.395 94.8678 182.539 95.5414 182.826 96.1089C183.12 96.6765 183.534 97.1141 184.067 97.4218C184.6 97.7295 185.233 97.8834 185.965 97.8834C186.45 97.8834 186.895 97.815 187.298 97.6782C187.701 97.5415 188.047 97.3363 188.334 97.0628C188.621 96.7893 188.84 96.4542 188.99 96.0576L193.032 96.3243C192.827 97.2953 192.406 98.1432 191.77 98.8681C191.141 99.586 190.327 100.147 189.329 100.55C188.337 100.947 187.192 101.145 185.893 101.145ZM202.66 100.837V85.0826H206.825V87.8623H207.009C207.338 86.9392 207.885 86.2109 208.651 85.6776C209.416 85.1442 210.333 84.8775 211.399 84.8775C212.48 84.8775 213.4 85.1476 214.159 85.6878C214.918 86.2212 215.424 86.946 215.677 87.8623H215.841C216.162 86.9597 216.743 86.2383 217.584 85.6981C218.432 85.151 219.434 84.8775 220.59 84.8775C222.06 84.8775 223.253 85.3459 224.169 86.2827C225.092 87.2127 225.554 88.5324 225.554 90.2419V100.837H221.195V91.1035C221.195 90.2282 220.962 89.5718 220.497 89.1342C220.032 88.6965 219.451 88.4777 218.754 88.4777C217.96 88.4777 217.342 88.7307 216.897 89.2367C216.453 89.7359 216.23 90.3958 216.23 91.2163V100.837H211.994V91.0112C211.994 90.2385 211.772 89.6231 211.328 89.1649C210.89 88.7068 210.312 88.4777 209.594 88.4777C209.109 88.4777 208.671 88.6008 208.281 88.847C207.898 89.0863 207.594 89.4248 207.368 89.8624C207.143 90.2932 207.03 90.7992 207.03 91.3804V100.837H202.66ZM236.124 101.145C234.531 101.145 233.153 100.807 231.99 100.13C230.835 99.4459 229.942 98.4954 229.313 97.2782C228.684 96.0542 228.37 94.6353 228.37 93.0216C228.37 91.3941 228.684 89.9718 229.313 88.7547C229.942 87.5307 230.835 86.5802 231.99 85.9032C233.153 85.2194 234.531 84.8775 236.124 84.8775C237.717 84.8775 239.092 85.2194 240.247 85.9032C241.41 86.5802 242.305 87.5307 242.935 88.7547C243.564 89.9718 243.878 91.3941 243.878 93.0216C243.878 94.6353 243.564 96.0542 242.935 97.2782C242.305 98.4954 241.41 99.4459 240.247 100.13C239.092 100.807 237.717 101.145 236.124 101.145ZM236.144 97.7603C236.869 97.7603 237.474 97.5552 237.96 97.1449C238.445 96.7278 238.811 96.1602 239.057 95.4422C239.31 94.7242 239.437 93.9071 239.437 92.9908C239.437 92.0745 239.31 91.2574 239.057 90.5394C238.811 89.8214 238.445 89.2538 237.96 88.8367C237.474 88.4196 236.869 88.211 236.144 88.211C235.413 88.211 234.797 88.4196 234.298 88.8367C233.806 89.2538 233.433 89.8214 233.18 90.5394C232.934 91.2574 232.811 92.0745 232.811 92.9908C232.811 93.9071 232.934 94.7242 233.18 95.4422C233.433 96.1602 233.806 96.7278 234.298 97.1449C234.797 97.5552 235.413 97.7603 236.144 97.7603ZM260.9 85.0826L255.392 100.837H250.468L244.96 85.0826H249.576L252.848 96.3551H253.012L256.274 85.0826H260.9ZM269.808 101.145C268.187 101.145 266.792 100.817 265.623 100.16C264.461 99.4972 263.565 98.5603 262.936 97.35C262.307 96.1329 261.992 94.6935 261.992 93.0318C261.992 91.4112 262.307 89.9889 262.936 88.7649C263.565 87.5409 264.45 86.587 265.592 85.9032C266.741 85.2194 268.088 84.8775 269.634 84.8775C270.673 84.8775 271.64 85.045 272.536 85.3801C273.439 85.7083 274.225 86.2041 274.895 86.8674C275.572 87.5307 276.099 88.3649 276.475 89.3701C276.851 90.3684 277.039 91.5377 277.039 92.878V94.078H263.736V91.3702H272.926C272.926 90.7411 272.789 90.1838 272.516 89.6983C272.242 89.2128 271.863 88.8333 271.377 88.5598C270.899 88.2794 270.341 88.1392 269.705 88.1392C269.042 88.1392 268.454 88.2931 267.941 88.6008C267.435 88.9017 267.039 89.3085 266.751 89.8214C266.464 90.3274 266.317 90.8915 266.31 91.5138V94.0883C266.31 94.8678 266.454 95.5414 266.741 96.1089C267.035 96.6765 267.449 97.1141 267.982 97.4218C268.516 97.7295 269.148 97.8834 269.88 97.8834C270.365 97.8834 270.81 97.815 271.213 97.6782C271.617 97.5415 271.962 97.3363 272.249 97.0628C272.536 96.7893 272.755 96.4542 272.906 96.0576L276.947 96.3243C276.742 97.2953 276.321 98.1432 275.685 98.8681C275.056 99.586 274.242 100.147 273.244 100.55C272.252 100.947 271.107 101.145 269.808 101.145Z" fill="white"/>
</svg>
