<svg width="79" height="52" viewBox="0 0 79 52" fill="none" xmlns="http://www.w3.org/2000/svg">
<path d="M4.63678 49.514C4.21771 49.514 3.85724 49.4252 3.55537 49.2476C3.25527 49.0683 3.02443 48.8197 2.86284 48.5018C2.70302 48.184 2.62312 47.8182 2.62312 47.4044C2.62312 46.9854 2.70391 46.6178 2.8655 46.3017C3.02887 45.9839 3.2606 45.7362 3.56069 45.5586C3.86079 45.3792 4.21771 45.2896 4.63145 45.2896C4.98837 45.2896 5.3009 45.3544 5.56903 45.484C5.83716 45.6136 6.04936 45.7956 6.20562 46.03C6.36189 46.2644 6.44801 46.5397 6.46399 46.8557H5.39323C5.36305 46.6515 5.28314 46.4873 5.15351 46.363C5.02566 46.2369 4.85785 46.1739 4.6501 46.1739C4.4743 46.1739 4.3207 46.2218 4.1893 46.3177C4.05967 46.4118 3.95845 46.5494 3.88565 46.7306C3.81285 46.9117 3.77644 47.131 3.77644 47.3885C3.77644 47.6495 3.81196 47.8715 3.88299 48.0544C3.95579 48.2372 4.05789 48.3766 4.1893 48.4725C4.3207 48.5684 4.4743 48.6164 4.6501 48.6164C4.77972 48.6164 4.89603 48.5897 4.99902 48.5365C5.10379 48.4832 5.18991 48.4059 5.25739 48.3047C5.32664 48.2017 5.37192 48.0783 5.39323 47.9345H6.46399C6.44623 48.247 6.361 48.5223 6.20829 48.7602C6.05735 48.9964 5.8487 49.181 5.58235 49.3142C5.31599 49.4474 5.0008 49.514 4.63678 49.514ZM9.039 49.514C8.62526 49.514 8.26745 49.4261 7.96558 49.2503C7.66548 49.0727 7.43375 48.8259 7.27039 48.5098C7.10702 48.192 7.02534 47.8235 7.02534 47.4044C7.02534 46.9818 7.10702 46.6125 7.27039 46.2964C7.43375 45.9785 7.66548 45.7317 7.96558 45.5559C8.26745 45.3783 8.62526 45.2896 9.039 45.2896C9.45274 45.2896 9.80966 45.3783 10.1098 45.5559C10.4116 45.7317 10.6442 45.9785 10.8076 46.2964C10.971 46.6125 11.0527 46.9818 11.0527 47.4044C11.0527 47.8235 10.971 48.192 10.8076 48.5098C10.6442 48.8259 10.4116 49.0727 10.1098 49.2503C9.80966 49.4261 9.45274 49.514 9.039 49.514ZM9.04433 48.635C9.23255 48.635 9.3897 48.5817 9.51578 48.4752C9.64186 48.3669 9.73686 48.2195 9.80078 48.033C9.86648 47.8466 9.89934 47.6344 9.89934 47.3964C9.89934 47.1585 9.86648 46.9463 9.80078 46.7599C9.73686 46.5734 9.64186 46.426 9.51578 46.3177C9.3897 46.2094 9.23255 46.1552 9.04433 46.1552C8.85433 46.1552 8.69451 46.2094 8.56488 46.3177C8.43703 46.426 8.34026 46.5734 8.27455 46.7599C8.21063 46.9463 8.17867 47.1585 8.17867 47.3964C8.17867 47.6344 8.21063 47.8466 8.27455 48.033C8.34026 48.2195 8.43703 48.3669 8.56488 48.4752C8.69451 48.5817 8.85433 48.635 9.04433 48.635ZM13.2981 49.5007C12.9873 49.5007 12.7059 49.4208 12.4537 49.2609C12.2033 49.0994 12.0044 48.8623 11.8571 48.5498C11.7115 48.2355 11.6386 47.8501 11.6386 47.3938C11.6386 46.925 11.7141 46.5352 11.8651 46.2245C12.016 45.9119 12.2166 45.6784 12.467 45.524C12.7192 45.3677 12.9953 45.2896 13.2954 45.2896C13.5245 45.2896 13.7153 45.3286 13.8681 45.4068C14.0225 45.4831 14.1468 45.579 14.241 45.6944C14.3369 45.8081 14.4097 45.9199 14.4594 46.03H14.494V43.9791H15.626V49.4341H14.5073V48.7788H14.4594C14.4061 48.8925 14.3306 49.0052 14.233 49.1171C14.1371 49.2272 14.0119 49.3187 13.8574 49.3915C13.7047 49.4643 13.5182 49.5007 13.2981 49.5007ZM13.6576 48.5977C13.8405 48.5977 13.995 48.548 14.1211 48.4486C14.249 48.3473 14.3466 48.2062 14.4141 48.0251C14.4833 47.8439 14.518 47.6317 14.518 47.3885C14.518 47.1452 14.4842 46.9339 14.4168 46.7545C14.3493 46.5752 14.2516 46.4367 14.1238 46.339C13.9959 46.2413 13.8405 46.1925 13.6576 46.1925C13.4712 46.1925 13.314 46.2431 13.1862 46.3443C13.0583 46.4456 12.9616 46.5858 12.8959 46.7652C12.8302 46.9445 12.7973 47.1523 12.7973 47.3885C12.7973 47.6264 12.8302 47.8368 12.8959 48.0197C12.9633 48.2008 13.0601 48.3429 13.1862 48.4459C13.314 48.5471 13.4712 48.5977 13.6576 48.5977ZM18.4234 49.514C18.0026 49.514 17.6403 49.4288 17.3367 49.2583C17.0348 49.086 16.8022 48.8428 16.6388 48.5285C16.4755 48.2124 16.3938 47.8386 16.3938 47.4071C16.3938 46.9863 16.4755 46.6169 16.6388 46.2991C16.8022 45.9812 17.0322 45.7335 17.3287 45.5559C17.627 45.3783 17.9768 45.2896 18.3782 45.2896C18.6481 45.2896 18.8993 45.3331 19.132 45.4201C19.3663 45.5053 19.5706 45.634 19.7446 45.8063C19.9204 45.9785 20.0571 46.1952 20.1548 46.4562C20.2524 46.7155 20.3013 47.0191 20.3013 47.3671V47.6788H16.8466V46.9756H19.2332C19.2332 46.8122 19.1977 46.6675 19.1266 46.5414C19.0556 46.4154 18.957 46.3168 18.831 46.2458C18.7067 46.173 18.5619 46.1366 18.3968 46.1366C18.2246 46.1366 18.0718 46.1765 17.9387 46.2564C17.8073 46.3346 17.7043 46.4402 17.6297 46.5734C17.5551 46.7048 17.5169 46.8513 17.5152 47.0129V47.6814C17.5152 47.8839 17.5525 48.0588 17.627 48.2062C17.7034 48.3536 17.8108 48.4672 17.9493 48.5471C18.0878 48.627 18.2521 48.667 18.4421 48.667C18.5682 48.667 18.6836 48.6492 18.7884 48.6137C18.8931 48.5782 18.9828 48.5249 19.0574 48.4539C19.132 48.3829 19.1888 48.2958 19.2278 48.1929L20.2773 48.2621C20.224 48.5143 20.1148 48.7344 19.9497 48.9227C19.7863 49.1091 19.575 49.2547 19.3157 49.3595C19.0583 49.4625 18.7608 49.514 18.4234 49.514ZM21.0417 49.4341V45.3428H22.1418V46.0567H22.1844C22.259 45.8027 22.3842 45.611 22.56 45.4813C22.7358 45.3499 22.9382 45.2842 23.1673 45.2842C23.2241 45.2842 23.2854 45.2878 23.3511 45.2949C23.4168 45.302 23.4745 45.3118 23.5242 45.3242V46.331C23.4709 46.315 23.3972 46.3008 23.3031 46.2884C23.209 46.276 23.1229 46.2698 23.0447 46.2698C22.8778 46.2698 22.7287 46.3062 22.5973 46.379C22.4676 46.45 22.3646 46.5494 22.2883 46.6773C22.2137 46.8051 22.1764 46.9525 22.1764 47.1194V49.4341H21.0417ZM27.5149 46.5095L26.4761 46.5734C26.4583 46.4846 26.4202 46.4047 26.3616 46.3337C26.303 46.2609 26.2257 46.2032 26.1298 46.1605C26.0357 46.1162 25.923 46.094 25.7916 46.094C25.6158 46.094 25.4675 46.1312 25.3467 46.2058C25.226 46.2786 25.1656 46.3763 25.1656 46.4988C25.1656 46.5965 25.2047 46.6791 25.2828 46.7465C25.3609 46.814 25.495 46.8682 25.685 46.909L26.4255 47.0582C26.8232 47.1399 27.1198 47.2713 27.3151 47.4524C27.5104 47.6335 27.6081 47.8715 27.6081 48.1662C27.6081 48.4344 27.5291 48.6696 27.3711 48.8721C27.2148 49.0745 26.9999 49.2325 26.7265 49.3462C26.4548 49.4581 26.1414 49.514 25.7862 49.514C25.2446 49.514 24.8131 49.4012 24.4917 49.1757C24.1721 48.9484 23.9848 48.6394 23.9297 48.2488L25.0458 48.1902C25.0795 48.3553 25.1612 48.4814 25.2908 48.5684C25.4204 48.6537 25.5865 48.6963 25.7889 48.6963C25.9878 48.6963 26.1476 48.6581 26.2683 48.5817C26.3909 48.5036 26.453 48.4033 26.4548 48.2808C26.453 48.1778 26.4095 48.0934 26.3243 48.0277C26.239 47.9602 26.1076 47.9087 25.9301 47.8732L25.2215 47.7321C24.822 47.6522 24.5246 47.5136 24.3293 47.3165C24.1357 47.1194 24.0389 46.8682 24.0389 46.5627C24.0389 46.2999 24.1099 46.0735 24.252 45.8835C24.3958 45.6935 24.5974 45.547 24.8566 45.444C25.1177 45.3411 25.4231 45.2896 25.7729 45.2896C26.2896 45.2896 26.6963 45.3988 26.9928 45.6172C27.2911 45.8356 27.4652 46.133 27.5149 46.5095ZM31.9071 49.514C31.4934 49.514 31.1356 49.4261 30.8337 49.2503C30.5336 49.0727 30.3019 48.8259 30.1385 48.5098C29.9751 48.192 29.8935 47.8235 29.8935 47.4044C29.8935 46.9818 29.9751 46.6125 30.1385 46.2964C30.3019 45.9785 30.5336 45.7317 30.8337 45.5559C31.1356 45.3783 31.4934 45.2896 31.9071 45.2896C32.3209 45.2896 32.6778 45.3783 32.9779 45.5559C33.2798 45.7317 33.5124 45.9785 33.6757 46.2964C33.8391 46.6125 33.9208 46.9818 33.9208 47.4044C33.9208 47.8235 33.8391 48.192 33.6757 48.5098C33.5124 48.8259 33.2798 49.0727 32.9779 49.2503C32.6778 49.4261 32.3209 49.514 31.9071 49.514ZM31.9124 48.635C32.1007 48.635 32.2578 48.5817 32.3839 48.4752C32.51 48.3669 32.605 48.2195 32.6689 48.033C32.7346 47.8466 32.7675 47.6344 32.7675 47.3964C32.7675 47.1585 32.7346 46.9463 32.6689 46.7599C32.605 46.5734 32.51 46.426 32.3839 46.3177C32.2578 46.2094 32.1007 46.1552 31.9124 46.1552C31.7224 46.1552 31.5626 46.2094 31.433 46.3177C31.3052 46.426 31.2084 46.5734 31.1427 46.7599C31.0787 46.9463 31.0468 47.1585 31.0468 47.3964C31.0468 47.6344 31.0787 47.8466 31.1427 48.033C31.2084 48.2195 31.3052 48.3669 31.433 48.4752C31.5626 48.5817 31.7224 48.635 31.9124 48.635ZM35.7933 47.0688V49.4341H34.6586V45.3428H35.74V46.0647H35.7879C35.8785 45.8267 36.0303 45.6385 36.2434 45.5C36.4565 45.3597 36.7149 45.2896 37.0185 45.2896C37.3026 45.2896 37.5503 45.3517 37.7617 45.476C37.973 45.6003 38.1372 45.7779 38.2544 46.0087C38.3716 46.2378 38.4302 46.5113 38.4302 46.8291V49.4341H37.2955V47.0315C37.2973 46.7812 37.2334 46.5858 37.1038 46.4456C36.9741 46.3035 36.7957 46.2325 36.5684 46.2325C36.4157 46.2325 36.2807 46.2653 36.1635 46.331C36.0481 46.3967 35.9575 46.4926 35.8918 46.6187C35.8279 46.743 35.7951 46.893 35.7933 47.0688ZM43.2366 45.3428V46.1952H40.7728V45.3428H43.2366ZM41.3322 44.3626H42.4669V48.1769C42.4669 48.2816 42.4828 48.3633 42.5148 48.4219C42.5468 48.4787 42.5912 48.5187 42.648 48.5418C42.7066 48.5649 42.7741 48.5764 42.8504 48.5764C42.9037 48.5764 42.957 48.572 43.0102 48.5631C43.0635 48.5524 43.1043 48.5444 43.1328 48.5391L43.3112 49.3835C43.2544 49.4012 43.1745 49.4217 43.0715 49.4447C42.9685 49.4696 42.8433 49.4847 42.6959 49.49C42.4225 49.5007 42.1827 49.4643 41.9768 49.3808C41.7726 49.2974 41.6136 49.1677 41.5 48.9919C41.3863 48.8161 41.3304 48.5942 41.3322 48.326V44.3626ZM45.1984 47.0688V49.4341H44.0637V43.9791H45.1664V46.0647H45.2143C45.3067 45.8232 45.4558 45.634 45.6618 45.4973C45.8678 45.3588 46.1262 45.2896 46.4369 45.2896C46.721 45.2896 46.9687 45.3517 47.1801 45.476C47.3931 45.5985 47.5583 45.7752 47.6755 46.0061C47.7945 46.2351 47.8531 46.5095 47.8513 46.8291V49.4341H46.7166V47.0315C46.7184 46.7794 46.6544 46.5832 46.5248 46.4429C46.397 46.3026 46.2176 46.2325 45.9868 46.2325C45.8323 46.2325 45.6956 46.2653 45.5766 46.331C45.4594 46.3967 45.3671 46.4926 45.2996 46.6187C45.2339 46.743 45.2001 46.893 45.1984 47.0688ZM50.6087 49.514C50.1879 49.514 49.8257 49.4288 49.522 49.2583C49.2201 49.086 48.9875 48.8428 48.8242 48.5285C48.6608 48.2124 48.5791 47.8386 48.5791 47.4071C48.5791 46.9863 48.6608 46.6169 48.8242 46.2991C48.9875 45.9812 49.2175 45.7335 49.514 45.5559C49.8123 45.3783 50.1622 45.2896 50.5635 45.2896C50.8334 45.2896 51.0846 45.3331 51.3173 45.4201C51.5517 45.5053 51.7559 45.634 51.9299 45.8063C52.1057 45.9785 52.2424 46.1952 52.3401 46.4562C52.4377 46.7155 52.4866 47.0191 52.4866 47.3671V47.6788H49.0319V46.9756H51.4185C51.4185 46.8122 51.383 46.6675 51.3119 46.5414C51.2409 46.4154 51.1423 46.3168 51.0163 46.2458C50.892 46.173 50.7473 46.1366 50.5821 46.1366C50.4099 46.1366 50.2572 46.1765 50.124 46.2564C49.9926 46.3346 49.8896 46.4402 49.815 46.5734C49.7404 46.7048 49.7022 46.8513 49.7005 47.0129V47.6814C49.7005 47.8839 49.7378 48.0588 49.8123 48.2062C49.8887 48.3536 49.9961 48.4672 50.1346 48.5471C50.2731 48.627 50.4374 48.667 50.6274 48.667C50.7535 48.667 50.8689 48.6492 50.9737 48.6137C51.0784 48.5782 51.1681 48.5249 51.2427 48.4539C51.3173 48.3829 51.3741 48.2958 51.4131 48.1929L52.4626 48.2621C52.4093 48.5143 52.3001 48.7344 52.135 48.9227C51.9716 49.1091 51.7603 49.2547 51.501 49.3595C51.2436 49.4625 50.9461 49.514 50.6087 49.514ZM54.963 49.4341V45.3428H56.0444V46.0647H56.0924C56.1776 45.8249 56.3197 45.6358 56.5186 45.4973C56.7174 45.3588 56.9554 45.2896 57.2324 45.2896C57.513 45.2896 57.7518 45.3597 57.9489 45.5C58.146 45.6385 58.2774 45.8267 58.3431 46.0647H58.3857C58.4692 45.8303 58.6201 45.6429 58.8385 45.5026C59.0587 45.3606 59.3189 45.2896 59.619 45.2896C60.0007 45.2896 60.3106 45.4112 60.5485 45.6545C60.7883 45.896 60.9081 46.2387 60.9081 46.6826V49.4341H59.7761V46.9063C59.7761 46.6791 59.7157 46.5086 59.595 46.3949C59.4742 46.2813 59.3233 46.2245 59.1422 46.2245C58.9362 46.2245 58.7755 46.2902 58.6601 46.4216C58.5446 46.5512 58.4869 46.7226 58.4869 46.9356V49.4341H57.3869V46.8824C57.3869 46.6817 57.3292 46.5219 57.2137 46.4029C57.1001 46.284 56.9501 46.2245 56.7636 46.2245C56.6375 46.2245 56.5239 46.2564 56.4227 46.3204C56.3232 46.3825 56.2442 46.4704 56.1856 46.5841C56.127 46.6959 56.0977 46.8273 56.0977 46.9783V49.4341H54.963ZM63.6529 49.514C63.2392 49.514 62.8814 49.4261 62.5795 49.2503C62.2794 49.0727 62.0477 48.8259 61.8843 48.5098C61.721 48.192 61.6393 47.8235 61.6393 47.4044C61.6393 46.9818 61.721 46.6125 61.8843 46.2964C62.0477 45.9785 62.2794 45.7317 62.5795 45.5559C62.8814 45.3783 63.2392 45.2896 63.6529 45.2896C64.0667 45.2896 64.4236 45.3783 64.7237 45.5559C65.0256 45.7317 65.2582 45.9785 65.4216 46.2964C65.5849 46.6125 65.6666 46.9818 65.6666 47.4044C65.6666 47.8235 65.5849 48.192 65.4216 48.5098C65.2582 48.8259 65.0256 49.0727 64.7237 49.2503C64.4236 49.4261 64.0667 49.514 63.6529 49.514ZM63.6583 48.635C63.8465 48.635 64.0036 48.5817 64.1297 48.4752C64.2558 48.3669 64.3508 48.2195 64.4147 48.033C64.4804 47.8466 64.5133 47.6344 64.5133 47.3964C64.5133 47.1585 64.4804 46.9463 64.4147 46.7599C64.3508 46.5734 64.2558 46.426 64.1297 46.3177C64.0036 46.2094 63.8465 46.1552 63.6583 46.1552C63.4683 46.1552 63.3084 46.2094 63.1788 46.3177C63.051 46.426 62.9542 46.5734 62.8885 46.7599C62.8246 46.9463 62.7926 47.1585 62.7926 47.3964C62.7926 47.6344 62.8246 47.8466 62.8885 48.033C62.9542 48.2195 63.051 48.3669 63.1788 48.4752C63.3084 48.5817 63.4683 48.635 63.6583 48.635ZM70.0868 45.3428L68.6565 49.4341H67.3779L65.9476 45.3428H67.1462L67.9959 48.2701H68.0385L68.8855 45.3428H70.0868ZM72.4001 49.514C71.9793 49.514 71.617 49.4288 71.3134 49.2583C71.0115 49.086 70.7789 48.8428 70.6155 48.5285C70.4522 48.2124 70.3705 47.8386 70.3705 47.4071C70.3705 46.9863 70.4522 46.6169 70.6155 46.2991C70.7789 45.9812 71.0088 45.7335 71.3054 45.5559C71.6037 45.3783 71.9535 45.2896 72.3548 45.2896C72.6247 45.2896 72.876 45.3331 73.1086 45.4201C73.343 45.5053 73.5472 45.634 73.7212 45.8063C73.897 45.9785 74.0338 46.1952 74.1314 46.4562C74.2291 46.7155 74.2779 47.0191 74.2779 47.3671V47.6788H70.8233V46.9756H73.2098C73.2098 46.8122 73.1743 46.6675 73.1033 46.5414C73.0323 46.4154 72.9337 46.3168 72.8076 46.2458C72.6833 46.173 72.5386 46.1366 72.3735 46.1366C72.2012 46.1366 72.0485 46.1765 71.9153 46.2564C71.7839 46.3346 71.6809 46.4402 71.6064 46.5734C71.5318 46.7048 71.4936 46.8513 71.4918 47.0129V47.6814C71.4918 47.8839 71.5291 48.0588 71.6037 48.2062C71.6801 48.3536 71.7875 48.4672 71.926 48.5471C72.0645 48.627 72.2288 48.667 72.4188 48.667C72.5448 48.667 72.6603 48.6492 72.765 48.6137C72.8698 48.5782 72.9595 48.5249 73.034 48.4539C73.1086 48.3829 73.1654 48.2958 73.2045 48.1929L74.254 48.2621C74.2007 48.5143 74.0915 48.7344 73.9263 48.9227C73.763 49.1091 73.5517 49.2547 73.2924 49.3595C73.0349 49.4625 72.7375 49.514 72.4001 49.514Z" fill="white"/>
<path d="M9.81581 36.3334C8.25986 36.3334 6.85061 35.9333 5.58807 35.1331C4.33442 34.324 3.33862 33.1371 2.60065 31.5722C1.87158 29.9985 1.50705 28.0691 1.50705 25.7841C1.50705 23.4368 1.88492 21.4852 2.64066 19.9293C3.39641 18.3644 4.40111 17.1953 5.65476 16.4217C6.9173 15.6393 8.29987 15.2481 9.80247 15.2481C10.9494 15.2481 11.9052 15.4437 12.6699 15.8349C13.4434 16.2172 14.0658 16.6974 14.537 17.2753C15.0171 17.8443 15.3817 18.4045 15.6306 18.9557H15.804V8.68646H21.4721V36H15.8707V32.7192H15.6306C15.3639 33.2882 14.986 33.8528 14.497 34.4129C14.0169 34.9642 13.39 35.4221 12.6165 35.7866C11.8519 36.1511 10.9183 36.3334 9.81581 36.3334ZM11.6163 31.8123C12.532 31.8123 13.3056 31.5633 13.9368 31.0654C14.577 30.5586 15.066 29.8518 15.4039 28.9449C15.7506 28.038 15.924 26.9755 15.924 25.7574C15.924 24.5393 15.7551 23.4813 15.4172 22.5833C15.0794 21.6853 14.5903 20.9918 13.9502 20.5028C13.31 20.0138 12.532 19.7692 11.6163 19.7692C10.6827 19.7692 9.89583 20.0226 9.25566 20.5294C8.6155 21.0362 8.13094 21.7386 7.80196 22.6366C7.47299 23.5346 7.30851 24.5749 7.30851 25.7574C7.30851 26.9488 7.47299 28.0024 7.80196 28.9182C8.13983 29.8251 8.62439 30.5364 9.25566 31.0521C9.89583 31.5589 10.6827 31.8123 11.6163 31.8123Z" fill="white"/>
<path d="M26.2499 36V8.68646H37.026C39.0976 8.68646 40.8625 9.08211 42.3207 9.87342C43.7788 10.6558 44.8902 11.745 45.6548 13.1409C46.4284 14.5279 46.8151 16.1283 46.8151 17.9421C46.8151 19.7559 46.4239 21.3563 45.6415 22.7433C44.8591 24.1303 43.7255 25.2106 42.2406 25.9841C40.7647 26.7577 38.9776 27.1444 36.8793 27.1444H30.0109V22.5166H35.9457C37.0571 22.5166 37.9729 22.3254 38.6931 21.9431C39.4221 21.5519 39.9645 21.014 40.3202 20.3294C40.6847 19.6359 40.867 18.8401 40.867 17.9421C40.867 17.0352 40.6847 16.2439 40.3202 15.5682C39.9645 14.8836 39.4221 14.3545 38.6931 13.9811C37.964 13.5988 37.0393 13.4076 35.919 13.4076H32.0247V36H26.2499ZM51.713 22.3432C51.713 19.0357 52.1531 15.9905 53.0333 13.2076C53.9225 10.4247 55.2784 7.84624 57.101 5.47231H62.5291C61.8356 6.35254 61.191 7.42836 60.5953 8.69979C59.9995 9.96233 59.4794 11.3493 59.0349 12.8608C58.5903 14.3723 58.2436 15.9372 57.9946 17.5554C57.7456 19.1647 57.6212 20.7606 57.6212 22.3432C57.6212 24.4504 57.8346 26.5799 58.2613 28.7315C58.697 30.8743 59.2838 32.8659 60.0218 34.7063C60.7686 36.5468 61.6044 38.0539 62.5291 39.2275H57.101C55.2784 36.8535 53.9225 34.2751 53.0333 31.4922C52.1531 28.7093 51.713 25.6596 51.713 22.3432ZM75.4023 22.3432C75.4023 25.6596 74.9578 28.7093 74.0686 31.4922C73.1884 34.2751 71.837 36.8535 70.0143 39.2275H64.5863C65.2798 38.3473 65.9244 37.2714 66.5201 36C67.1158 34.7286 67.6359 33.3416 68.0805 31.839C68.525 30.3275 68.8718 28.7626 69.1207 27.1444C69.3697 25.5263 69.4942 23.9258 69.4942 22.3432C69.4942 20.236 69.2763 18.1111 68.8407 15.9683C68.4139 13.8166 67.8271 11.825 67.0802 9.99345C66.3423 8.15299 65.5109 6.64594 64.5863 5.47231H70.0143C71.837 7.84624 73.1884 10.4247 74.0686 13.2076C74.9578 15.9905 75.4023 19.0357 75.4023 22.3432Z" fill="#FFE500"/>
</svg>
